<svg width="256" height="114" viewBox="0 0 256 114" fill="none" xmlns="http://www.w3.org/2000/svg">
<path d="M127.919 113.086C94.3979 113.086 62.8749 108.595 39.1534 100.455C15.2049 92.2326 2.01319 81.2041 2.01319 69.4024C2.01319 57.6008 15.2049 46.5722 39.1534 38.3475C62.8749 30.2031 94.3979 25.7184 127.919 25.7184C161.439 25.7184 192.962 30.2102 216.682 38.3475C240.632 46.5722 253.822 57.6008 253.822 69.4024C253.822 81.2041 240.632 92.2326 216.682 100.455C192.962 108.602 161.437 113.086 127.919 113.086ZM127.919 27.0966C94.5469 27.0966 63.1822 31.5554 39.6026 39.6524C16.2522 47.6691 3.39147 58.2343 3.39147 69.4024C3.39147 80.5705 16.2522 91.1357 39.6026 99.1524C63.1822 107.249 94.5469 111.708 127.919 111.708C161.29 111.708 192.655 107.249 216.235 99.1524C239.583 91.1357 252.443 80.5681 252.443 69.4024C252.443 58.2367 239.583 47.6691 216.235 39.6524C192.655 31.5554 161.29 27.0966 127.919 27.0966Z" fill="#C3937C"/>
<path d="M28.782 41.2955C21.2949 43.0473 15.4934 48.1254 10.907 54.1019C8.28518 57.5204 6.03218 61.2108 3.92103 64.9626C1.88316 68.5844 -0.504591 72.7311 0.0935293 77.0574C1.2945 85.7266 11.5855 87.3389 18.5336 88.2893C24.0183 89.0387 28.834 90.6298 33.6048 93.4762C37.7727 95.9656 41.6759 98.8687 45.8651 101.325C54.1726 106.195 63.291 109.836 72.797 111.505C82.3433 113.181 91.4901 112.309 100.895 110.276C106.434 109.077 111.933 108.058 117.611 107.833C123.143 107.614 128.682 107.916 134.207 108.212C145.304 108.804 156.401 109.401 167.496 110.001C184.064 110.89 203.291 112.978 217.925 103.382C225.32 98.5283 229.398 90.3366 236.469 85.1781C242.046 81.1095 250.845 80.3672 254.566 74.0124C258.699 66.9461 253.167 59.1729 247.238 55.3927C243.001 52.6929 238.207 50.8583 233.637 48.8157L218.388 41.9953C213.4 39.7636 208.426 37.5035 203.417 35.3096C198.842 33.3119 194.173 31.5435 189.201 30.8745C178.799 29.4726 168.201 31.5837 157.742 31.0282C146.839 30.4561 136.075 28.5151 125.283 26.9666C120.29 26.2574 115.28 25.612 110.247 25.229C105.084 24.8366 99.6534 24.4465 94.5043 25.1699C89.9652 25.8082 86.9581 28.3685 83.3764 30.9643C78.7853 34.293 73.7734 34.6689 68.291 34.0684C63.3784 33.5318 58.584 32.8107 53.6336 33.092C44.4239 33.6062 35.5034 36.4915 27.7371 41.4681C27.4203 41.669 27.7134 42.1773 28.0326 41.974C36.1799 36.7794 45.5827 33.8897 55.2411 33.6121C63.5155 33.397 73.0027 37.1725 80.8019 33.2764C84.8209 31.2717 87.7051 27.5718 92.1024 26.2668C96.9394 24.8295 102.637 25.3543 107.613 25.638C117.923 26.229 128.11 28.0021 138.316 29.4962C147.824 30.884 157.413 32.0282 167.042 31.7279C177.333 31.4041 187.404 29.9785 197.357 33.4939C207.185 36.9668 216.641 41.8463 226.152 46.0994C230.748 48.1562 235.351 50.194 239.94 52.2673C244.164 54.1775 248.547 56.2863 251.678 59.8088C254.883 63.4236 256.68 68.9627 254.226 73.4592C252.389 76.8234 248.765 78.5799 245.398 80.0409C242.032 81.5019 238.569 82.8258 235.613 85.1048C232.512 87.4949 230.008 90.5423 227.493 93.5069C221.887 100.126 215.736 105.07 207.308 107.588C199.355 109.963 190.932 110.299 182.686 110.124C162.676 109.694 142.706 107.365 122.692 107.19C117.935 107.148 113.178 107.387 108.481 108.167C103.583 108.98 98.7881 110.276 93.8849 111.094C84.2488 112.699 74.4401 111.841 65.0877 109.098C56.0733 106.455 47.8108 102.117 40.0281 96.9254C36.3519 94.4762 32.6733 91.9608 28.5953 90.2137C24.2713 88.3626 19.7488 87.9536 15.1529 87.2491C10.6611 86.5588 5.93289 85.2963 2.84536 81.6934C-1.26347 76.8848 1.28268 70.9722 3.93758 66.1659C7.73197 59.2958 12.0418 52.3146 18.1766 47.2791C21.3021 44.6687 24.9894 42.8174 28.9499 41.87C29.3163 41.7849 29.1603 41.2199 28.7938 41.305L28.782 41.2955Z" fill="#C3937C"/>
<path d="M93.3483 26.3071C117.978 16.6615 144.713 13.6691 170.865 17.6308C171.38 17.7088 171.603 16.9216 171.083 16.8388C144.791 12.8398 117.91 15.833 93.1426 25.5175C92.6556 25.709 92.8683 26.5009 93.3601 26.3071H93.3483Z" fill="#C3937C"/>
<path d="M113.384 20.0587C123.313 12.574 135.704 10.1862 147.664 8.00176C148.184 7.9072 147.964 7.11759 147.446 7.21215C135.411 9.40605 122.952 11.8245 112.961 19.3519C112.545 19.6663 112.961 20.3779 113.375 20.0611L113.384 20.0587Z" fill="#C3937C"/>
<path d="M120.677 15.6591C130.843 6.41068 145.389 2.90943 158.661 6.49106C158.766 6.5199 158.878 6.50596 158.972 6.45232C159.067 6.39867 159.136 6.30971 159.165 6.205C159.194 6.1003 159.18 5.98841 159.126 5.89398C159.073 5.79954 158.984 5.73029 158.879 5.70145C145.318 2.03944 130.488 5.63289 120.108 15.0799C119.717 15.4345 120.297 16.0255 120.687 15.6591H120.677Z" fill="#C3937C"/>
<path d="M122.439 15.0184C135.141 14.7324 148.207 14.1343 159.04 6.68967C159.47 6.39179 159.061 5.68019 158.626 5.98043C147.912 13.3517 135.009 13.9144 122.439 14.1981C121.911 14.1981 121.911 15.0303 122.439 15.0184Z" fill="#C3937C"/>
<path d="M128.023 12.3493C130.459 10.3828 133.03 8.58809 135.715 6.97809C136.169 6.70858 135.756 5.99935 135.302 6.26885C132.557 7.91663 129.932 9.75408 127.443 11.7678C127.032 12.0988 127.616 12.6756 128.023 12.347V12.3493Z" fill="#C3937C"/>
<path d="M133.836 10.8788C137.233 8.4178 141.106 6.80548 145.049 5.44139C145.545 5.27117 145.33 4.47919 144.831 4.65177C140.812 6.04187 136.874 7.67547 133.422 10.1743C132.999 10.4817 133.406 11.1933 133.836 10.8836V10.8788Z" fill="#C3937C"/>
<path d="M141.179 9.27598C145.173 7.47575 149.434 6.3402 153.794 5.91421C154.314 5.8622 154.319 5.04186 153.794 5.09387C149.291 5.53544 144.89 6.70847 140.765 8.56675C140.292 8.78188 140.699 9.48875 141.179 9.27598Z" fill="#C3937C"/>
<path d="M132.009 12.0231C135.051 13.2038 138.322 13.6775 141.574 13.4085C142.096 13.3659 142.101 12.5456 141.574 12.5905C138.396 12.8569 135.199 12.3928 132.228 11.2335C131.739 11.0373 131.519 11.8293 132.009 12.0231Z" fill="#C3937C"/>
<path d="M138.585 10.3399C142.673 11.2855 147.042 11.6803 151.167 10.7465C151.68 10.6306 151.463 9.83867 150.947 9.95451C146.976 10.8552 142.737 10.4699 138.805 9.55025C138.292 9.42968 138.072 10.2193 138.585 10.3399Z" fill="#C3937C"/>
<path d="M144.564 8.53843C148.541 8.63535 152.572 8.67791 156.524 8.19799C157.042 8.13416 157.049 7.31382 156.524 7.37765C152.572 7.85047 148.541 7.81738 144.564 7.72045C144.037 7.70626 144.037 8.52661 144.564 8.53843Z" fill="#C3937C"/>
<path d="M155.948 15.8104C166.454 11.7396 177.633 9.68012 188.901 9.73938C189.004 9.73153 189.101 9.6849 189.171 9.60885C189.242 9.53279 189.281 9.43292 189.281 9.32921C189.281 9.22551 189.242 9.12563 189.171 9.04957C189.101 8.97352 189.004 8.92689 188.901 8.91904C177.561 8.85761 166.31 10.9274 155.735 15.0208C155.248 15.2099 155.46 16.0019 155.952 15.8104H155.948Z" fill="#C3937C"/>
<path d="M161.361 13.6685C171.527 5.17191 186.364 4.0135 198.067 10.2287C198.539 10.4652 198.303 9.47223 197.83 9.224C191.975 6.09367 185.316 4.78866 178.713 5.47717C172.109 6.16568 165.863 8.81614 160.78 13.087C160.373 13.4274 160.957 14.0042 161.359 13.6685H161.361Z" fill="#C3937C"/>
<path d="M161.782 13.5952C168.378 14.4034 175.035 14.5791 181.664 14.1201C187.026 13.7394 193.809 13.6212 198.412 10.5455C198.849 10.2547 198.44 9.54551 197.998 9.83629C195.499 11.5054 192.561 11.964 189.655 12.4084C186.407 12.9018 183.141 13.2359 179.858 13.4108C173.826 13.7221 167.778 13.5085 161.782 12.7725C161.26 12.7087 161.262 13.529 161.782 13.5929V13.5952Z" fill="#C3937C"/>
<path d="M167.449 11.9096C170.962 9.17197 175.033 7.3587 179.338 6.26885C179.849 6.13882 179.631 5.34684 179.121 5.47687C174.671 6.60692 170.496 8.50293 166.87 11.3304C166.454 11.6543 167.038 12.2311 167.449 11.9096Z" fill="#C3937C"/>
<path d="M178.501 10.2973C182.006 8.14168 186.083 7.10203 190.192 7.31613C190.719 7.34214 190.716 6.52179 190.192 6.49815C185.937 6.28534 181.718 7.36321 178.087 9.5904C177.636 9.86464 178.047 10.5739 178.501 10.2996V10.2973Z" fill="#C3937C"/>
<path d="M172.17 11.1484C174.695 11.8576 177.099 12.834 179.704 13.2643C182.245 13.6671 184.827 13.7362 187.385 13.47C187.906 13.4203 187.91 12.6 187.385 12.6496C184.62 12.9405 181.827 12.8315 179.092 12.3257C176.787 11.8813 174.636 10.9924 172.387 10.3564C172.285 10.3346 172.178 10.3528 172.088 10.4074C171.999 10.4619 171.933 10.5487 171.905 10.6499C171.878 10.751 171.889 10.859 171.939 10.9517C171.988 11.0444 172.071 11.1147 172.17 11.1484Z" fill="#C3937C"/>
<path d="M180.34 10.0042C185.123 11.5999 190.244 12.529 195.293 12.1106C195.816 12.0657 195.821 11.2453 195.293 11.2902C190.308 11.704 185.281 10.7891 180.558 9.21456C180.057 9.04671 179.849 9.83868 180.34 10.0042Z" fill="#C3937C"/>
<path d="M107.493 5.95442C109.966 9.31618 110.408 13.7063 108.152 17.3211C106.025 20.7183 101.894 22.2644 98.3649 23.7538C97.8921 23.9548 98.0954 24.7491 98.5824 24.5434C102.566 22.8649 107.093 21.1486 109.221 17.113C111.216 13.3423 110.698 8.9332 108.202 5.5407C107.892 5.12225 107.181 5.52888 107.493 5.95442Z" fill="#C3937C"/>
<path d="M107.98 6.24286C107.252 6.22868 106.519 6.22395 105.791 6.19558C105.396 6.19845 105.001 6.17634 104.608 6.12938C104.44 5.48319 104.597 5.21841 105.081 5.33504C105.144 5.33419 105.206 5.31909 105.262 5.29088C105.318 5.26268 105.367 5.2221 105.405 5.17222C105.443 5.12235 105.469 5.06448 105.481 5.00299C105.494 4.94151 105.492 4.878 105.476 4.8173C105.4 4.49578 104.923 3.22626 105.098 2.9993C105.601 2.34917 106.126 3.25462 106.306 3.62815C106.486 4.00168 106.937 3.82438 107.055 3.53123C107.292 2.93547 108.263 2.07493 108.554 2.96857C108.519 2.86455 108.521 3.91421 108.505 3.64943C108.506 3.75774 108.55 3.86105 108.627 3.93743C108.704 4.0138 108.808 4.0572 108.916 4.05842C109.053 4.05842 110.223 3.88584 110.278 3.98513C110.696 4.77002 108.519 5.44143 108.136 5.45797C107.611 5.48162 107.606 6.30196 108.136 6.27832C109.318 6.22631 110.814 5.50289 111.067 4.20263C111.33 2.848 109.793 3.17897 108.916 3.23807L109.325 3.64943C109.273 2.68487 109.767 1.52173 108.292 1.41534C107.15 1.32787 106.62 2.41536 106.263 3.30663L107.013 3.20734C106.642 2.43427 105.878 1.39879 104.902 1.96145C103.762 2.61868 104.464 4.08915 104.687 5.0348L105.081 4.51469C104.204 4.51469 102.904 4.88822 103.339 6.05609C103.899 7.56676 106.859 7.03956 107.987 7.0632C108.516 7.07502 108.516 6.25468 107.987 6.24286H107.98Z" fill="#C3937C"/>
<path d="M108.689 5.02062C108.062 4.35631 107.006 3.9355 106.185 4.52653C105.523 4.99935 105.301 6.02773 105.928 6.62822C106.554 7.2287 107.977 7.30908 108.765 7.05612C109.552 6.80316 110.077 5.87406 109.606 5.11282C109.33 4.66364 108.62 5.075 108.897 5.52654C109.505 6.50765 107.211 6.35635 106.769 6.19086C106.223 5.98282 106.282 5.30196 106.819 5.10337C107.292 4.92606 107.798 5.27595 108.105 5.59983C108.469 5.98519 109.051 5.40361 108.684 5.02062H108.689Z" fill="#C3937C"/>
<path d="M128.094 17.3376C137.013 19.9653 146.295 21.145 155.588 20.8318C156.113 20.8152 156.115 19.9949 155.588 20.0114C146.369 20.3261 137.16 19.1583 128.311 16.5527C127.803 16.4038 127.585 17.1934 128.091 17.3423L128.094 17.3376Z" fill="#C3937C"/>
<path d="M136.349 19.2478C146.59 16.7652 157.371 17.8321 166.926 22.2739C167.399 22.4938 167.818 21.7869 167.34 21.5647C157.591 17.0223 146.588 15.9261 136.134 18.4559C135.621 18.5812 135.838 19.3708 136.351 19.2478H136.349Z" fill="#C3937C"/>
<path d="M136.285 19.5977C145.536 25.534 156.713 25.0139 167.064 22.8555C167.579 22.7491 167.361 21.9595 166.846 22.0659C156.706 24.1794 145.765 24.7089 136.699 18.8909C136.254 18.6048 135.843 19.314 136.285 19.6001V19.5977Z" fill="#C3937C"/>
<path d="M142.827 20.0209C145.881 19.1344 149.066 18.4511 152.255 18.366C152.78 18.3519 152.782 17.5339 152.255 17.548C148.995 17.6355 145.73 18.3282 142.609 19.2313C142.103 19.3779 142.318 20.1769 142.827 20.0233V20.0209Z" fill="#C3937C"/>
<path d="M152.687 20.6829C157.135 20.3182 161.611 20.7611 165.9 21.9902C166.409 22.1344 166.626 21.3448 166.12 21.2006C161.76 19.9495 157.209 19.4962 152.687 19.8625C152.165 19.9051 152.16 20.7254 152.687 20.6829Z" fill="#C3937C"/>
<path d="M145.973 20.7017C147.761 22.4838 150.024 23.7147 152.491 24.2479C153.007 24.359 153.226 23.5694 152.709 23.4559C150.381 22.9568 148.247 21.7969 146.562 20.1155C146.485 20.0386 146.381 19.9955 146.272 19.9955C146.164 19.9955 146.06 20.0386 145.983 20.1155C145.906 20.1923 145.863 20.2964 145.863 20.4051C145.863 20.5137 145.906 20.6179 145.983 20.6947L145.973 20.7017Z" fill="#C3937C"/>
<path d="M152.846 20.697C155.347 22.3209 158.204 23.3161 161.172 23.5978C161.695 23.6498 161.692 22.8295 161.172 22.7774C158.347 22.5005 155.63 21.5433 153.255 19.9878C152.81 19.7017 152.399 20.411 152.841 20.697H152.846Z" fill="#C3937C"/>
<path d="M87.5207 28.4371C91.4967 22.091 97.3146 17.1094 104.197 14.1579C104.67 13.9498 104.263 13.243 103.783 13.4487C96.7776 16.4702 90.8584 21.554 86.8138 28.0234C86.5325 28.4726 87.2417 28.8839 87.523 28.4371H87.5207Z" fill="#C3937C"/>
<path d="M90.1141 24.4914C91.7477 16.4132 99.249 11.1791 107.415 12.5456C107.93 12.633 108.152 11.8363 107.632 11.7559C99.0504 10.3186 91.0526 15.7206 89.3245 24.2857C89.2204 24.8011 90.01 25.021 90.1141 24.5032V24.4914Z" fill="#C3937C"/>
<path d="M90.7217 23.9146C94.1894 23.441 97.5017 22.1761 100.402 20.2179C103.303 18.2596 105.715 15.6604 107.45 12.6212C107.713 12.1626 107.003 11.7489 106.741 12.2052C105.059 15.1521 102.719 17.6708 99.9031 19.5649C97.0875 21.459 93.8727 22.6773 90.509 23.125C89.9889 23.1959 90.2087 23.9855 90.7265 23.9146H90.7217Z" fill="#C3937C"/>
<path d="M93.5941 20.6994C94.7262 18.4425 96.1936 16.3701 97.9464 14.5527C98.3129 14.1744 97.7337 13.5929 97.3672 13.9735C95.5582 15.8382 94.0436 17.9674 92.8754 20.288C92.639 20.7609 93.3482 21.1746 93.5847 20.7018L93.5941 20.6994Z" fill="#C3937C"/>
<path d="M99.4003 16.3896C101.081 14.5291 103.246 13.1721 105.653 12.4699C106.157 12.321 105.942 11.5243 105.433 11.6779C102.888 12.4186 100.597 13.8488 98.814 15.8104C98.4594 16.1981 99.0504 16.7797 99.3955 16.3896H99.4003Z" fill="#C3937C"/>
<path d="M96.0835 18.6804C98.3075 18.9477 100.563 18.7159 102.686 18.0019C103.183 17.8365 102.97 17.0445 102.467 17.21C100.414 17.8991 98.233 18.1213 96.0835 17.8601C95.561 17.7986 95.5657 18.619 96.0835 18.6804Z" fill="#C3937C"/>
<path d="M102.195 15.4132C103.192 15.5403 104.203 15.4753 105.176 15.2217C105.687 15.0894 105.469 14.2997 104.956 14.4298C104.055 14.6621 103.117 14.7175 102.195 14.5929C101.672 14.5267 101.677 15.347 102.195 15.4132Z" fill="#C3937C"/>
<path d="M168.406 17.3093C172.338 16.0468 176.3 16.8081 179.74 19.0162C180.187 19.3022 180.598 18.593 180.154 18.3069C176.548 15.9948 172.307 15.1981 168.189 16.5173C167.688 16.678 167.903 17.4629 168.406 17.3093Z" fill="#C3937C"/>
<path d="M167.522 17.4038C170.853 20.08 176.132 19.8412 180.116 19.2289C180.636 19.1485 180.414 18.3589 179.898 18.4393C176.265 18.9972 171.135 19.262 168.101 16.8246C167.695 16.4984 167.111 17.0752 167.522 17.4038Z" fill="#C3937C"/>
<path d="M169.65 17.7513C172.757 17.9552 175.851 18.323 178.92 18.853C179.435 18.9405 179.657 18.1438 179.137 18.061C175.997 17.5191 172.83 17.1419 169.65 16.931C169.123 16.8979 169.125 17.7182 169.65 17.7513Z" fill="#C3937C"/>
<path d="M108.739 21.2809C114.981 20.8598 121.251 21.19 127.415 22.2644C127.93 22.3542 128.153 21.5552 127.633 21.4724C121.401 20.3806 115.061 20.0417 108.748 20.463C108.223 20.4961 108.221 21.3164 108.748 21.2809H108.739Z" fill="#C3937C"/>
<path d="M127.283 21.8271C127.876 21.5129 128.514 21.2897 129.174 21.1651C129.276 21.1486 130.098 20.9642 130.186 21.0705C129.982 20.8223 129.375 21.2644 129.162 21.3282C128.86 21.4228 128.72 21.9287 129.063 22.0777L129.966 22.463L130.344 22.6261C130.258 22.7256 130.14 22.7912 130.01 22.8111C129.88 22.831 129.747 22.804 129.635 22.7349C129.565 22.715 129.492 22.7143 129.422 22.7331C129.352 22.7518 129.288 22.7892 129.238 22.8413C129.001 23.1155 129.105 23.1864 129.087 23.5032L129.169 23.7018C129.086 23.7276 128.997 23.724 128.916 23.6917C128.835 23.6595 128.767 23.6004 128.725 23.5245C128.515 23.3304 128.358 23.0864 128.269 22.8153C128.032 22.1509 127.834 21.4795 126.98 21.6332C126.462 21.7325 126.68 22.5245 127.198 22.4252C127.209 22.4252 127.86 23.794 127.997 23.9453C128.271 24.2794 128.652 24.5102 129.075 24.6002C129.247 24.6288 129.424 24.6052 129.583 24.5323C129.742 24.4594 129.875 24.3406 129.966 24.1912C130.041 24.0382 130.068 23.8656 130.042 23.6971C130.022 23.6091 129.992 23.5235 129.954 23.4418C129.907 23.2384 129.862 23.229 129.817 23.4157L129.417 23.5198C130.11 23.7562 131.162 23.794 131.309 22.8484C131.455 21.9027 130.113 21.6403 129.484 21.3684C129.453 21.619 129.42 21.8673 129.387 22.1179C129.871 21.9689 130.505 21.7254 130.782 21.2644C130.834 21.1874 130.868 21.1001 130.884 21.0085C130.899 20.9168 130.894 20.8229 130.87 20.7332C130.846 20.6435 130.803 20.5601 130.743 20.4886C130.684 20.4171 130.61 20.3592 130.526 20.3188C130.082 20.1202 129.427 20.2951 128.964 20.3802C128.232 20.5224 127.525 20.7725 126.867 21.1226C126.394 21.359 126.812 22.0682 127.28 21.8318L127.283 21.8271Z" fill="#C3937C"/>
<path d="M46.1889 34.8486C48.3166 32.1984 50.7445 29.9194 53.8344 28.4206C58.6738 26.0778 64.2602 25.4985 69.5487 25.1392C70.0735 25.1037 70.0782 24.2834 69.5487 24.3188C64.246 24.6782 58.7211 25.2645 53.8368 27.5175C50.5034 29.0494 47.8911 31.4348 45.6097 34.2694C45.2811 34.676 45.8579 35.26 46.1889 34.8486Z" fill="#C3937C"/>
<path d="M48.5483 32.2362C51.8959 23.976 61.603 23.0446 69.2154 24.7278C69.7308 24.8413 69.9506 24.0517 69.4353 23.9382C61.3193 22.1439 51.286 23.3141 47.7587 32.0164C47.5601 32.5058 48.3545 32.7256 48.5483 32.2362Z" fill="#C3937C"/>
<path d="M49.0259 31.988C53.7541 31.9738 58.6194 31.5152 63.2106 30.2527C66.2697 29.4064 69.0641 27.8248 70.1445 24.6853C70.3171 24.1864 69.5251 23.976 69.3549 24.4678C68.0664 28.2054 64.1538 29.2835 60.662 30.0092C56.8354 30.7866 52.9401 31.1754 49.0353 31.17C48.9269 31.17 48.8228 31.2131 48.7461 31.2898C48.6694 31.3665 48.6264 31.4705 48.6264 31.579C48.6264 31.6875 48.6694 31.7915 48.7461 31.8682C48.8228 31.9449 48.9269 31.988 49.0353 31.988H49.0259Z" fill="#C3937C"/>
<path d="M52.624 28.969C54.5379 27.1914 56.7109 25.7151 59.0686 24.5907C59.5414 24.3543 59.13 23.6569 58.6548 23.8815C56.231 25.0414 53.9988 26.5649 52.0353 28.3993C51.65 28.761 52.2292 29.3449 52.6145 28.9785L52.624 28.969Z" fill="#C3937C"/>
<path d="M61.0119 25.8674C62.8016 24.7936 64.8911 24.329 66.9671 24.5435C67.492 24.5931 67.4872 23.7728 66.9671 23.7231C64.7453 23.5071 62.5127 24.0101 60.5982 25.1581C60.1443 25.4276 60.5557 26.1369 61.0119 25.8674Z" fill="#C3937C"/>
<path d="M53.7706 28.4324C57.25 29.9072 61.0921 30.3033 64.7992 29.5695C65.3169 29.4655 65.0994 28.6759 64.5817 28.7799C61.0865 29.4674 57.4658 29.1004 54.1796 27.7255C53.7068 27.5175 53.2812 28.2243 53.7659 28.4348L53.7706 28.4324Z" fill="#C3937C"/>
<path d="M58.6809 26.7799C61.3051 27.69 65.7354 28.9808 68.4329 27.6309C68.9057 27.3945 68.4896 26.6853 68.0192 26.9217C66.9246 27.4702 65.3217 27.2716 64.1539 27.1581C62.3634 26.9756 60.6004 26.5844 58.9008 25.9926C58.3996 25.82 58.1916 26.612 58.6809 26.7822V26.7799Z" fill="#C3937C"/>
<path d="M72.1776 35.4042C77.8281 37.2283 83.759 38.0289 89.6909 37.7683C90.2181 37.747 90.2205 36.9267 89.6909 36.9503C83.8329 37.2078 77.9759 36.4185 72.3951 34.6193C71.8915 34.4562 71.6859 35.2481 72.1776 35.4089V35.4042Z" fill="#C3937C"/>
<path d="M78.2841 36.8108C84.3424 35.1446 90.7791 35.5024 96.6154 37.8297C97.1072 38.0236 97.3247 37.2316 96.8329 37.0401C90.854 34.6705 84.2652 34.3161 78.0666 36.0306C77.9619 36.0595 77.873 36.1287 77.8193 36.2232C77.7657 36.3176 77.7517 36.4295 77.7806 36.5342C77.8094 36.6389 77.8787 36.7279 77.9731 36.7815C78.0675 36.8352 78.1794 36.8491 78.2841 36.8203V36.8108Z" fill="#C3937C"/>
<path d="M78.3716 37.5319C84.0668 41.2908 91.0362 40.974 96.9086 37.8534C97.3814 37.6052 96.9606 36.9078 96.4949 37.1442C90.873 40.1324 84.237 40.4208 78.7853 36.825C78.3433 36.5342 77.9343 37.2435 78.3716 37.5343V37.5319Z" fill="#C3937C"/>
<path d="M84.672 37.3238C86.3269 36.5105 88.029 36.1961 89.873 36.1205C90.3979 36.0992 90.4002 35.2788 89.873 35.3001C87.8943 35.3805 86.0503 35.7398 84.263 36.6169C83.7902 36.8533 84.2039 37.5626 84.6767 37.3262L84.672 37.3238Z" fill="#C3937C"/>
<path d="M89.4144 37.5649C91.5087 37.3604 93.618 37.3604 95.7124 37.5649C96.2372 37.6146 96.2325 36.7942 95.7124 36.7446C93.6179 36.5425 91.5088 36.5425 89.4144 36.7446C88.8943 36.7942 88.8895 37.6146 89.4144 37.5649Z" fill="#C3937C"/>
<path d="M81.407 37.4987C83.7751 38.9951 86.4481 39.9426 89.2299 40.2718C89.75 40.3404 89.7453 39.5201 89.2299 39.4515C86.5933 39.1277 84.0626 38.2182 81.8231 36.7895C81.3763 36.5058 80.965 37.215 81.407 37.4987Z" fill="#C3937C"/>
<path d="M86.9651 38.1229C89.1426 38.9427 91.4791 39.2525 93.795 39.0283C94.3175 38.9811 94.3222 38.1607 93.795 38.2104C91.5505 38.4276 89.286 38.1276 87.1755 37.3333C86.679 37.1489 86.4663 37.9408 86.9557 38.1229H86.9651Z" fill="#C3937C"/>
<path d="M208.005 36.2198C196.92 33.9148 184.75 34.78 173.82 37.6075C173.31 37.7399 173.527 38.5295 174.038 38.3971C184.811 35.6098 196.854 34.7375 207.788 37.0117C208.301 37.1181 208.521 36.3285 208.005 36.2198Z" fill="#C3937C"/>
<path d="M194.922 34.9384C188.487 32.9644 179.319 33.0471 173.903 37.5011C173.494 37.8344 174.078 38.4113 174.482 38.0803C179.622 33.8675 188.615 33.8604 194.705 35.728C195.211 35.8841 195.426 35.0921 194.922 34.9384Z" fill="#C3937C"/>
<path d="M196.227 35.3805C193.293 37.9393 189.656 39.5543 185.79 40.0148C181.924 40.4753 178.009 39.76 174.555 37.9622C174.083 37.7257 173.671 38.435 174.142 38.6714C181.655 42.5131 190.419 41.4705 196.806 35.9621C197.206 35.617 196.624 35.0401 196.227 35.3829V35.3805Z" fill="#C3937C"/>
<path d="M178.243 40.0166C181.036 39.1064 183.995 38.0142 186.36 36.234C186.776 35.9196 186.36 35.208 185.946 35.5247C183.629 37.2742 180.759 38.3404 178.026 39.2293C177.527 39.3924 177.74 40.175 178.243 40.0213V40.0166Z" fill="#C3937C"/>
<path d="M185.913 40.6454C188.922 39.1229 192.18 37.6666 194.832 35.5555C195.244 35.2269 194.66 34.65 194.251 34.9739C191.664 37.0354 188.435 38.4515 185.504 39.9385C185.031 40.175 185.447 40.8842 185.917 40.6478L185.913 40.6454Z" fill="#C3937C"/>
<path d="M177.901 36.0803C179.2 36.0802 180.495 36.239 181.756 36.5531C182.272 36.669 182.492 35.8794 181.976 35.7635C180.643 35.4323 179.274 35.2656 177.901 35.2671C177.373 35.2836 177.371 36.104 177.901 36.0874V36.0803Z" fill="#C3937C"/>
<path d="M183.556 35.0094C185.437 35.1985 187.31 35.4554 189.173 35.78C189.688 35.8699 189.91 35.0708 189.39 34.9904C187.455 34.6532 185.51 34.386 183.556 34.189C183.031 34.137 183.036 34.955 183.556 35.0094Z" fill="#C3937C"/>
<path d="M197.18 26.7846C205.841 32.4824 214.962 37.4492 224.448 41.6336C224.92 41.8463 225.344 41.1395 224.861 40.9243C215.376 36.74 206.255 31.7732 197.594 26.0754C197.152 25.7846 196.74 26.4938 197.18 26.7846Z" fill="#C3937C"/>
<path d="M208.866 32.8509C201.989 31.345 195.154 29.0069 191.482 22.5221C191.222 22.0611 190.513 22.4749 190.773 22.9359C194.556 29.6097 201.544 32.0873 208.646 33.6406C209.161 33.754 209.379 32.9644 208.863 32.8509H208.866Z" fill="#C3937C"/>
<path d="M191.289 23.0942C198.901 23.2195 206.216 26.7326 209.329 33.9857C209.537 34.4585 210.242 34.0519 210.038 33.572C206.816 26.0659 199.163 22.4039 191.291 22.2739C190.761 22.2739 190.761 23.0848 191.291 23.0942H191.289Z" fill="#C3937C"/>
<path d="M194.012 23.5127C195.912 24.5435 197.613 25.9044 199.036 27.5317C199.383 27.9312 199.963 27.3496 199.615 26.9525C198.146 25.2696 196.388 23.8615 194.426 22.794C193.953 22.541 193.549 23.2503 194.012 23.5032V23.5127Z" fill="#C3937C"/>
<path d="M200.417 25.203C202.071 27.0943 203.681 29.1015 204.807 31.3686C205.043 31.8415 205.752 31.4277 205.516 30.9549C204.362 28.6286 202.707 26.5648 200.998 24.6215C200.648 24.2267 200.071 24.8082 200.419 25.203H200.417Z" fill="#C3937C"/>
<path d="M193.267 25.7728C194.856 26.3307 196.341 27.0328 198.022 27.3C198.506 27.378 198.717 26.6357 198.227 26.5576C196.549 26.2905 195.062 25.5884 193.473 25.0304C193 24.8649 192.802 25.6096 193.267 25.7728Z" fill="#C3937C"/>
<path d="M197.071 29.1511C198.764 29.6901 200.518 29.7989 202.253 30.1204C202.769 30.2173 202.991 29.4277 202.471 29.3308C200.738 29.0069 198.981 28.9005 197.291 28.3591C196.788 28.1984 196.582 28.9903 197.071 29.1511Z" fill="#C3937C"/>
<path d="M189.589 26.1463C189.65 25.2195 189.939 22.2242 188.783 21.7088C187.627 21.1935 187.05 23.2479 187.007 23.9973L187.586 23.664C186.641 23.0304 184.485 21.6568 183.485 22.9973C182.634 24.1321 184.092 25.1486 185.069 25.3141V24.5694C184.203 24.6994 181.927 24.6238 181.839 25.9453C181.752 27.2669 183.865 27.1274 184.634 27.1628C184.544 26.9453 184.454 26.7255 184.362 26.5056C183.378 27.3212 183.31 28.5813 184.764 28.8272C186.511 29.1203 188.402 28.047 189.582 26.8626C189.646 26.789 189.68 26.6937 189.677 26.5961C189.673 26.4984 189.633 26.4056 189.564 26.3365C189.495 26.2674 189.402 26.2271 189.305 26.2238C189.207 26.2206 189.112 26.2545 189.038 26.3189C188.347 27.0405 187.481 27.5721 186.525 27.8626C185.91 28.0423 183.501 28.2172 184.908 27.0517C185.184 26.8153 184.939 26.4111 184.634 26.3921C184.161 26.3661 182.705 26.1794 183.688 25.5458C184.024 25.333 184.87 25.3732 185.262 25.3094C185.655 25.2455 185.627 24.6262 185.262 24.5647C184.44 24.5946 184.291 24.3456 184.816 23.8176C184.887 23.281 185.114 23.1439 185.492 23.4086C186.007 23.4299 186.776 24.054 187.185 24.3235C187.243 24.3566 187.31 24.374 187.377 24.3738C187.444 24.3737 187.51 24.3561 187.569 24.3228C187.628 24.2894 187.677 24.2415 187.711 24.1836C187.746 24.1258 187.765 24.0599 187.766 23.9926C187.686 23.3621 187.966 22.9547 188.608 22.7703C188.706 23.2247 188.774 23.6852 188.811 24.1486C188.862 24.8119 188.862 25.4782 188.811 26.1415C188.778 26.6356 189.549 26.6333 189.582 26.1415L189.589 26.1463Z" fill="#C3937C"/>
<path d="M188.123 24.8271C187.684 24.7634 187.237 24.8634 186.867 25.1082C186.497 25.3529 186.23 25.7252 186.117 26.1542C186.004 26.5831 186.053 27.0386 186.254 27.4339C186.455 27.8292 186.795 28.1367 187.208 28.2976C189.336 29.1747 190.312 25.3047 188.215 25.1132C187.721 25.0683 187.724 25.839 188.215 25.8839C188.842 25.9406 188.615 26.9501 188.404 27.3024C188.073 27.8367 187.43 27.709 187.078 27.2669C186.433 26.4536 187.192 25.4962 188.123 25.612C188.615 25.6711 188.61 24.9028 188.123 24.8413V24.8271Z" fill="#C3937C"/>
<path d="M163.688 4.19317C163.487 3.73926 163.113 2.99693 163.215 2.48628C163.035 2.0371 163.144 1.92598 163.543 2.15767C163.882 2.13087 164.04 2.28848 164.016 2.63049C164.035 2.69486 164.07 2.75331 164.118 2.80016C164.166 2.847 164.225 2.88063 164.29 2.89778C164.354 2.91492 164.422 2.91499 164.487 2.89798C164.552 2.88097 164.611 2.84745 164.659 2.8007C165.191 2.25696 165.735 1.68248 166.402 1.30423C166.961 0.77624 167.404 0.863709 167.73 1.56664C167.488 1.94278 167.199 2.28742 166.872 2.59267C166.657 2.81253 166.796 3.28535 167.144 3.24989C168.392 3.12459 169.574 3.03239 170.704 3.72271V3.0584C169.606 3.61644 168.419 3.97657 167.196 4.12225C167.116 4.12822 167.039 4.15893 166.977 4.21017C166.915 4.26142 166.87 4.33066 166.849 4.40841C166.827 4.48615 166.831 4.56856 166.858 4.64432C166.886 4.72008 166.936 4.78546 167.002 4.83148C167.453 4.94496 167.507 5.20264 167.165 5.60454C167.13 6.29014 166.768 6.42726 166.075 6.01354C165.33 5.78488 164.658 5.36513 164.125 4.79601C164.053 4.72501 163.955 4.68541 163.854 4.68579C163.752 4.68617 163.655 4.72651 163.583 4.79806C163.511 4.86961 163.471 4.9666 163.47 5.06801C163.469 5.16941 163.508 5.26706 163.579 5.33976C164.525 6.28541 166.804 7.66605 168.182 6.72986C169.364 5.91897 168.182 4.63998 167.39 4.16716L167.196 4.87639C168.553 4.71143 169.872 4.31145 171.092 3.69434C171.149 3.65986 171.197 3.61115 171.23 3.55295C171.262 3.49475 171.28 3.42903 171.28 3.36218C171.28 3.29533 171.262 3.22962 171.23 3.17142C171.197 3.11322 171.149 3.06451 171.092 3.03002C169.856 2.2806 168.548 2.32079 167.144 2.45791L167.416 3.1175C167.974 2.55011 169.503 1.0158 168.461 0.259285C167.08 -0.740734 164.915 1.4177 164.113 2.23332L164.759 2.40354C164.567 1.61392 163.749 0.212005 162.754 1.08909C161.884 1.85506 162.673 3.75581 163.033 4.56434C163.234 5.01825 163.898 4.6258 163.699 4.17662L163.688 4.19317Z" fill="#C3937C"/>
<path d="M164.681 3.257C163.827 3.257 162.874 3.53596 162.539 4.40359C162.203 5.27122 162.678 6.03246 163.527 6.28069C164.288 6.50529 165.293 6.33271 165.681 5.57146C165.763 5.41527 165.812 5.24358 165.825 5.06734C165.837 4.89111 165.812 4.71422 165.753 4.548C165.693 4.38178 165.599 4.22988 165.477 4.10202C165.355 3.97416 165.208 3.87316 165.045 3.80547C164.572 3.61871 164.383 4.36577 164.839 4.5478C165.156 4.67547 165.075 5.16484 164.893 5.36106C164.588 5.68494 163.981 5.66367 163.6 5.50291C163.506 5.46589 163.422 5.40658 163.356 5.33008C163.289 5.25357 163.243 5.16215 163.219 5.06362C163.196 4.96509 163.197 4.86239 163.222 4.76432C163.247 4.66626 163.296 4.57574 163.364 4.50052C163.657 4.09626 164.229 4.0277 164.688 4.0277C164.79 4.0277 164.888 3.9871 164.96 3.91483C165.032 3.84256 165.073 3.74455 165.073 3.64235C165.073 3.54015 165.032 3.44214 164.96 3.36987C164.888 3.2976 164.79 3.257 164.688 3.257H164.681Z" fill="#C3937C"/>
<path d="M56.884 66.2773C56.884 66.2145 56.6948 66.2145 56.6948 66.2773C56.8209 67.8789 55.6543 69.0409 54.2671 69.7946C54.2671 69.7946 54.2671 69.7946 54.2355 69.7946C54.1409 69.8574 54.0463 69.9202 53.9202 69.9516C53.8572 69.983 53.7941 70.0144 53.7311 70.0458C53.6995 70.0772 53.668 70.0772 53.6365 70.0772C52.8167 70.4226 51.9969 70.6111 51.4294 70.7053C51.3663 70.7053 51.3348 70.7053 51.2718 70.7053C51.0826 70.7367 50.8934 70.7681 50.7042 70.7681C50.5466 70.7681 50.452 70.7681 50.452 70.7681C49.6007 70.7681 46.2586 70.7053 45.092 70.6739V60.6874H49.9791V60.342H45.092V58.3007C45.092 56.5421 45.092 55.1918 45.092 54.1868V51.015H49.9791C50.0736 51.015 50.1367 51.015 50.2313 51.015C50.6727 51.0464 51.0826 51.0778 51.4925 51.1721H51.524C54.204 51.5489 55.9381 53.0249 56.1273 55.4744C56.1273 55.5372 56.3165 55.5372 56.3165 55.4744C56.2849 54.4695 56.1904 51.7059 56.1273 50.6696C56.1273 50.6696 56.1273 50.6696 56.0958 50.6696H42.7903V71.1135H56.7263V71.0193C56.7579 69.8888 56.8525 67.2508 56.884 66.2773Z" fill="#333333"/>
<path d="M78.6408 50.6696H71.9881C71.925 50.6696 71.925 50.858 71.9881 50.858H72.398C74.2582 50.858 75.4248 50.9836 75.4878 57.8611V67.6277L73.9744 65.7435L73.7852 65.5236L63.0968 52.2712C62.6238 51.7373 62.1509 51.1093 61.9302 50.7324C61.9302 50.701 61.8987 50.6696 61.8987 50.6696H58.525C58.3674 50.6696 58.2097 50.6696 58.0521 50.6696V51.015C58.8718 51.2349 59.5024 51.7059 59.9438 52.0828C59.9754 52.1456 59.9754 52.177 60.0069 52.2084L60.0384 63.4824C59.9754 70.5168 59.1241 70.8937 57.453 70.8937H57.2638C57.1692 70.8937 57.1692 71.1135 57.2323 71.0821H63.885C63.9481 71.0821 63.9481 70.8937 63.885 70.8937H63.4436C61.5203 70.8937 60.3537 70.7681 60.3852 63.1369V52.6166L60.5429 52.7737L74.7942 70.5482C74.9834 70.7681 75.2041 70.9879 75.3617 71.1135C75.4248 71.1449 75.4878 71.1763 75.5509 71.1763C75.6455 71.1763 75.7085 71.1449 75.7401 71.1135H75.8347V58.4578C75.8977 51.2663 76.749 50.858 78.4201 50.858H78.6092C78.7038 50.858 78.6723 50.6696 78.6408 50.6696Z" fill="#333333"/>
<path d="M96.5391 65.2724V65.7121C96.5391 66.6542 96.0347 67.6277 95.2149 68.507H95.1834C94.6474 69.0409 93.9537 69.5747 93.1655 70.0458H93.134C93.1024 70.0772 93.0709 70.0772 93.0394 70.1086C92.661 70.297 92.2827 70.4854 91.8728 70.6425C91.6206 70.7367 91.3683 70.7995 91.1161 70.8623C91.0846 70.8623 91.053 70.8623 91.0215 70.8937C90.9269 70.8937 90.8008 70.9251 90.7062 70.9565C90.454 70.9879 90.2017 71.0193 89.918 71.0507C89.6027 71.0821 89.2874 71.0821 88.9406 71.0821C83.5806 71.0821 80.4591 66.9368 80.4591 60.9073C80.4591 54.8149 83.8643 50.6696 89.1928 50.6696C89.445 50.6696 89.6657 50.6696 89.8864 50.701C89.918 50.701 89.918 50.701 89.9495 50.701C90.6116 50.7638 91.2107 50.8894 91.7782 51.0778C92.1881 51.2349 92.598 51.4547 92.9763 51.6431C93.0078 51.6745 93.0394 51.6745 93.0709 51.7059C93.8591 52.1456 94.5843 52.6794 95.1203 53.2447C95.1518 53.2447 95.1518 53.2447 95.1518 53.2761C95.9716 54.124 96.4761 55.0975 96.4761 56.0397V56.4793C96.4761 56.5421 96.6653 56.5421 96.6653 56.4793L96.6337 55.0033V54.9405L96.5076 51.6745C94.8996 50.9522 91.6206 50.3556 89.1297 50.3556C83.0446 50.3556 77.8107 54.7207 77.8107 60.9073C77.8107 66.9368 82.6347 71.3962 89.0036 71.3962C92.2196 71.3962 94.9627 70.7995 96.5707 70.0772L96.6968 66.7484L96.7283 65.2724C96.7283 65.2096 96.5391 65.2096 96.5391 65.2724Z" fill="#333333"/>
<path d="M116.587 70.8937C114.853 70.8937 114.695 70.5482 114.695 68.5384V52.5224C114.726 51.1407 115.042 50.858 116.587 50.858C116.65 50.858 116.65 50.6382 116.587 50.6382H110.565C110.47 50.6382 110.47 50.858 110.565 50.858C112.046 50.858 112.362 51.1093 112.425 52.4282V61.4097H101.673V52.5224C101.736 51.1407 102.02 50.858 103.597 50.858C103.628 50.858 103.66 50.6382 103.597 50.6382H97.5429C97.4799 50.6382 97.4799 50.858 97.5429 50.858C99.0248 50.858 99.3716 51.1093 99.4347 52.4282V69.5119C99.3401 70.6739 98.9933 70.8937 97.5429 70.8937C97.5114 70.8937 97.4799 71.1135 97.5429 71.1135C98.4573 71.1135 100.254 71.1135 100.727 71.1135C101.2 71.1135 102.682 71.1135 103.597 71.1135C103.66 71.1135 103.66 70.8937 103.597 70.8937C101.831 70.8937 101.673 70.5482 101.673 68.5384V61.7238H112.425V69.5119C112.362 70.6739 111.983 70.8937 110.565 70.8937C110.502 70.8937 110.502 71.1135 110.565 71.1135C111.479 71.1135 113.245 71.1135 113.718 71.1135C114.19 71.1135 115.704 71.1135 116.587 71.1135C116.681 71.1135 116.65 70.8937 116.587 70.8937Z" fill="#333333"/>
<path d="M138.783 70.8309C137.521 70.8309 136.733 70.6425 135.787 68.7896L128.157 50.6382C128.126 50.6068 128.031 50.5754 127.842 50.5754H127.558C127.401 50.5754 127.401 50.6068 127.369 50.6382L126.392 53.0249L125.067 56.3537L121.631 64.8641C121.505 65.241 121.315 65.6806 121.126 66.1203V66.1517L120.464 67.8161C119.297 70.2656 118.289 70.7995 116.712 70.7995C116.649 70.7995 116.649 71.0821 116.744 71.0821C116.933 71.0821 118.446 71.0821 119.14 71.0821V71.1135C119.297 71.0821 119.424 71.1135 119.55 71.1135V71.0821C120.149 71.0821 122.009 71.0821 122.671 71.0821C122.766 71.0821 122.766 70.7995 122.64 70.7995C120.212 70.7995 120.369 69.2921 121.347 66.6228L123.207 61.9436H130.459L130.869 62.8543L130.9 62.9171L131.247 63.765C131.31 63.8906 131.373 64.0162 131.405 64.1105L131.247 63.765L131.531 64.3931C131.752 64.8956 131.941 65.3666 132.13 65.8063L132.161 65.8691L133.013 67.8789C134.022 70.4226 134.022 70.8309 132.288 70.8309C132.193 70.8309 132.193 71.1135 132.288 71.1135C133.013 71.1135 135.377 71.1135 135.787 71.1135C136.166 71.1135 138.625 71.1135 138.783 71.1135C138.877 71.1135 138.877 70.8309 138.783 70.8309ZM123.302 61.661L126.045 54.8149L126.707 53.1505L130.333 61.661H123.302Z" fill="#333333"/>
<path d="M160.482 50.6696H153.829C153.766 50.6696 153.766 50.858 153.829 50.858H154.239C156.099 50.858 157.266 50.9836 157.329 57.8611V67.6277L155.815 65.7435L155.626 65.5236L144.938 52.2712C144.465 51.7373 143.992 51.1093 143.771 50.7324C143.771 50.701 143.74 50.6696 143.74 50.6696H140.366C140.208 50.6696 140.051 50.6696 139.893 50.6696V51.015C140.713 51.2349 141.343 51.7059 141.785 52.0828C141.816 52.1456 141.816 52.177 141.848 52.2084L141.879 63.4824C141.816 70.5168 140.965 70.8937 139.294 70.8937H139.105C139.01 70.8937 139.01 71.1135 139.073 71.0821H145.726C145.789 71.0821 145.789 70.8937 145.726 70.8937H145.285C143.361 70.8937 142.195 70.7681 142.226 63.1369V52.6166L142.384 52.7737L156.635 70.5482C156.824 70.7681 157.045 70.9879 157.203 71.1135C157.266 71.1449 157.329 71.1763 157.392 71.1763C157.487 71.1763 157.55 71.1449 157.581 71.1135H157.676V58.4578C157.739 51.2663 158.59 50.858 160.261 50.858H160.45C160.545 50.858 160.513 50.6696 160.482 50.6696Z" fill="#333333"/>
<path d="M177.408 54.0298V53.967L177.282 50.6696H160.476V50.701L160.35 53.967V54.0298L160.319 55.5058C160.319 55.5686 160.508 55.5686 160.508 55.5058C160.445 51.4861 163.314 50.9836 164.323 50.9522H167.76V68.8838C167.76 70.5797 167.539 70.8937 165.931 70.8937C165.899 70.8937 165.868 71.0821 165.931 71.0821C166.404 71.0821 167.129 71.0821 167.76 71.0821V71.1135H170.03V71.0821C170.629 71.0821 171.354 71.0821 171.859 71.0821C171.922 71.0821 171.922 70.8937 171.859 70.8937C170.156 70.8937 170.03 70.5482 170.03 68.5384V50.9522H173.466C174.475 50.9836 177.313 51.4861 177.282 55.5058C177.282 55.5686 177.471 55.5686 177.471 55.5058L177.408 54.0298Z" fill="#333333"/>
<path d="M192.731 66.2773C192.731 66.2145 192.542 66.2145 192.542 66.2773C192.668 67.8789 191.502 69.0409 190.115 69.7946C190.115 69.7946 190.115 69.7946 190.083 69.7946C189.988 69.8574 189.894 69.9202 189.768 69.9516C189.705 69.983 189.642 70.0144 189.579 70.0458C189.547 70.0772 189.515 70.0772 189.484 70.0772C188.664 70.4226 187.844 70.6111 187.277 70.7053C187.214 70.7053 187.182 70.7053 187.119 70.7053C186.93 70.7367 186.741 70.7681 186.552 70.7681C186.394 70.7681 186.299 70.7681 186.299 70.7681C185.448 70.7681 182.106 70.7053 180.939 70.6739V60.6874H185.827V60.342H180.939V58.3007C180.939 56.5421 180.939 55.1918 180.939 54.1868V51.015H185.827C185.921 51.015 185.984 51.015 186.079 51.015C186.52 51.0464 186.93 51.0778 187.34 51.1721H187.371C190.051 51.5489 191.786 53.0249 191.975 55.4744C191.975 55.5372 192.164 55.5372 192.164 55.4744C192.132 54.4695 192.038 51.7059 191.975 50.6696C191.975 50.6696 191.975 50.6696 191.943 50.6696H178.638V71.1135H192.574V71.0193C192.605 69.8888 192.7 67.2508 192.731 66.2773Z" fill="#333333"/>
<path d="M201.719 50.6696C201.309 50.6696 200.3 50.6696 199.323 50.701C198.345 50.701 196.8 50.701 196.359 50.701C195.886 50.701 194.215 50.701 193.3 50.701C193.237 50.701 193.237 50.8894 193.3 50.8894C194.814 50.8894 195.192 51.1721 195.255 52.491V69.4491C195.192 70.6111 194.814 70.8309 193.364 70.8309C193.3 70.8309 193.269 71.0507 193.364 71.0507C194.057 71.0507 195.318 71.0507 196.044 71.0507L201.435 71.0821C201.593 71.0821 201.719 71.0821 201.813 71.0821C208.182 71.0821 213.006 66.9368 213.006 60.9073C213.006 54.7207 207.804 50.6696 201.719 50.6696ZM201.876 70.7995C200.962 70.7995 199.48 70.7367 198.44 70.7053C197.778 70.4854 197.652 69.9516 197.62 68.664V52.6166C197.683 51.4233 197.872 51.015 198.881 50.9208H201.656C206.953 50.9208 210.389 54.8149 210.389 60.9073C210.389 66.9368 207.236 70.7995 201.876 70.7995Z" fill="#333333"/>
<path d="M97.5378 81.036H92.8735C92.7825 81.036 92.8052 81.2424 92.8735 81.2424C94.1021 81.2424 94.1249 81.5175 93.3968 83.3748V83.3977L92.7597 84.8652V84.911C92.6232 85.232 92.4639 85.576 92.3274 85.9428L92.1909 86.2638C92.1909 86.2638 92.1909 86.2638 92.1681 86.2638V86.2867C92.1454 86.3326 92.1454 86.3555 92.1226 86.4014L91.8496 87.0205L91.8268 87.0663L91.5538 87.7313L91.4628 87.9376L88.8462 94.1514L88.3457 92.9132L86.3889 87.9376L86.3206 87.7313L86.0476 87.0663L86.6392 85.5989C86.7529 85.3237 86.8667 85.0027 87.0032 84.6817L87.026 84.6588L87.5038 83.4436V83.4206C88.3229 81.6322 89.051 81.2424 90.1886 81.2424C90.2341 81.2424 90.2569 81.036 90.1659 81.036H81.6563C81.5653 81.036 81.588 81.2424 81.6335 81.2424C82.7712 81.2424 83.4993 81.6322 84.3184 83.4436C84.3184 83.4436 84.3411 83.4436 84.3411 83.4665L84.8189 84.6588V84.6817C84.9555 85.0027 85.0692 85.3237 85.183 85.5989L85.7746 87.0663L85.5015 87.7313L85.4333 87.9376L83.4765 92.9132L82.9987 94.1514L80.3594 87.9376L80.2684 87.7313L79.9953 87.0663L79.9726 87.0205L79.6995 86.4014C79.6768 86.3555 79.6768 86.3326 79.654 86.2867V86.2638H79.6313L79.5175 85.9428C79.3582 85.576 79.199 85.232 79.0852 84.911L79.0625 84.8652L78.4481 83.3977L78.4254 83.3518C77.72 81.5175 77.72 81.2424 78.9487 81.2424C79.017 81.2424 79.0397 81.036 78.9487 81.036H77.4243C77.4015 81.036 77.4015 81.036 77.3787 81.036H76.6507C76.6051 81.036 76.5824 81.036 76.5596 81.036C76.5369 81.036 76.4914 81.036 76.4686 81.036H74.2843C74.2161 81.036 74.2161 81.2424 74.2843 81.2424C75.1945 81.2424 75.7633 81.38 76.4231 82.7328L76.9464 83.9709C76.9692 83.9939 76.9692 84.0168 76.9919 84.0626L81.9521 95.9628C81.9748 96.0086 82.0203 96.0316 82.1569 96.0316H82.3616C82.4754 96.0316 82.4982 96.0086 82.5209 95.9628L84.1819 91.8126L85.9111 87.4332L87.6403 91.8126L89.3013 95.9628C89.324 96.0086 89.3468 96.0316 89.4605 96.0316H89.6653C89.8018 96.0316 89.8701 96.0086 89.8928 95.9628L94.853 84.0626C94.853 84.0397 94.853 84.0397 94.853 84.0397C94.853 84.0168 94.853 84.0168 94.8757 83.9939L95.3991 82.7328C96.0589 81.38 96.6277 81.2424 97.5378 81.2424C97.6061 81.2424 97.6061 81.036 97.5378 81.036ZM84.9555 84.3149C84.9555 84.2919 84.9555 84.2919 84.9555 84.269C84.2729 82.343 84.1591 81.2653 85.9111 81.2424C87.6631 81.2653 87.5493 82.343 86.8667 84.269C86.8667 84.2919 86.8667 84.2919 86.8667 84.3149L85.9111 86.7224L84.9555 84.3149Z" fill="#333333"/>
<path d="M108.367 92.4776C108.367 92.4317 108.231 92.4317 108.231 92.4776C108.322 93.6469 107.48 94.4953 106.479 95.0456C106.479 95.0456 106.479 95.0456 106.456 95.0456C106.388 95.0915 106.319 95.1373 106.228 95.1603C106.183 95.1832 106.137 95.2061 106.092 95.229C106.069 95.252 106.046 95.252 106.024 95.252C105.432 95.5042 104.84 95.6418 104.431 95.7106C104.385 95.7106 104.363 95.7106 104.317 95.7106C104.181 95.7335 104.044 95.7564 103.908 95.7564C103.794 95.7564 103.726 95.7564 103.726 95.7564C103.111 95.7564 100.699 95.7106 99.8576 95.6876V88.3962H103.384V88.144H99.8576V86.6536C99.8576 85.3696 99.8576 84.3836 99.8576 83.6499V81.3341H103.384C103.453 81.3341 103.498 81.3341 103.566 81.3341C103.885 81.357 104.181 81.38 104.476 81.4487H104.499C106.433 81.7239 107.685 82.8015 107.821 84.59C107.821 84.6359 107.958 84.6359 107.958 84.59C107.935 83.8563 107.867 81.8385 107.821 81.0819C107.821 81.0819 107.821 81.0819 107.798 81.0819H98.1966V96.0086H108.253V95.9398C108.276 95.1144 108.344 93.1884 108.367 92.4776Z" fill="#333333"/>
<path d="M114.853 81.0819C114.557 81.0819 113.829 81.0819 113.124 81.1048C112.418 81.1048 111.303 81.1048 110.985 81.1048C110.644 81.1048 109.438 81.1048 108.778 81.1048C108.732 81.1048 108.732 81.2424 108.778 81.2424C109.87 81.2424 110.143 81.4487 110.188 82.4118V94.7934C110.143 95.6418 109.87 95.8023 108.823 95.8023C108.778 95.8023 108.755 95.9628 108.823 95.9628C109.324 95.9628 110.234 95.9628 110.757 95.9628L114.648 95.9857C114.762 95.9857 114.853 95.9857 114.921 95.9857C119.517 95.9857 122.998 92.9591 122.998 88.5567C122.998 84.0397 119.244 81.0819 114.853 81.0819ZM114.967 95.7793C114.307 95.7793 113.237 95.7335 112.486 95.7106C112.009 95.55 111.918 95.1603 111.895 94.2202V82.5035C111.94 81.6322 112.077 81.3341 112.805 81.2653H114.807C118.63 81.2653 121.11 84.1085 121.11 88.5567C121.11 92.9591 118.835 95.7793 114.967 95.7793Z" fill="#333333"/>
<path d="M129.073 81.0819C128.778 81.0819 128.049 81.0819 127.344 81.1048C126.639 81.1048 125.524 81.1048 125.205 81.1048C124.864 81.1048 123.658 81.1048 122.998 81.1048C122.953 81.1048 122.953 81.2424 122.998 81.2424C124.09 81.2424 124.364 81.4487 124.409 82.4118V94.7934C124.364 95.6418 124.09 95.8023 123.044 95.8023C122.998 95.8023 122.976 95.9628 123.044 95.9628C123.544 95.9628 124.455 95.9628 124.978 95.9628L128.869 95.9857C128.982 95.9857 129.073 95.9857 129.142 95.9857C133.738 95.9857 137.219 92.9591 137.219 88.5567C137.219 84.0397 133.465 81.0819 129.073 81.0819ZM129.187 95.7793C128.527 95.7793 127.458 95.7335 126.707 95.7106C126.229 95.55 126.138 95.1603 126.115 94.2202V82.5035C126.161 81.6322 126.298 81.3341 127.026 81.2653H129.028C132.85 81.2653 135.33 84.1085 135.33 88.5567C135.33 92.9591 133.055 95.7793 129.187 95.7793Z" fill="#333333"/>
<path d="M141.61 95.8481C140.336 95.8481 140.222 95.5959 140.222 94.1285V82.4347C140.268 81.4258 140.473 81.2194 141.61 81.2194C141.633 81.2194 141.656 81.0589 141.61 81.0589H137.242C137.196 81.0589 137.196 81.2194 137.242 81.2194C138.311 81.2194 138.561 81.4029 138.607 82.3659V94.8393C138.539 95.6876 138.288 95.8481 137.242 95.8481C137.219 95.8481 137.196 96.0086 137.242 96.0086C137.901 96.0086 139.198 96.0086 139.54 96.0086C139.881 96.0086 140.95 96.0086 141.61 96.0086C141.656 95.9857 141.656 95.8481 141.61 95.8481Z" fill="#333333"/>
<path d="M157.264 81.0819H152.463C152.418 81.0819 152.418 81.2194 152.463 81.2194H152.759C154.101 81.2194 154.943 81.3112 154.989 86.3326V93.4635L153.896 92.0878L153.76 91.9273L146.047 82.2513C145.705 81.8615 145.364 81.4029 145.205 81.1277C145.205 81.1048 145.182 81.0819 145.182 81.0819H142.748C142.634 81.0819 142.52 81.0819 142.406 81.0819V81.3341C142.998 81.4946 143.453 81.8385 143.771 82.1137C143.794 82.1595 143.794 82.1825 143.817 82.2054L143.84 90.4369C143.794 95.573 143.18 95.8481 141.974 95.8481H141.837C141.769 95.8481 141.769 96.0086 141.815 95.9857H146.616C146.661 95.9857 146.661 95.8481 146.616 95.8481H146.297C144.909 95.8481 144.067 95.7564 144.09 90.1847V82.5035L144.204 82.6181L154.488 95.5959C154.625 95.7564 154.784 95.9169 154.898 96.0086C154.943 96.0316 154.989 96.0545 155.034 96.0545C155.102 96.0545 155.148 96.0316 155.171 96.0086H155.239V86.7683C155.284 81.5175 155.899 81.2194 157.105 81.2194H157.241C157.309 81.2194 157.287 81.0819 157.264 81.0819Z" fill="#333333"/>
<path d="M169.111 90.712C167.495 89.9783 164.856 91.1018 163.855 91.8356L165.334 87.6625L165.083 87.5708L162.672 94.4265L162.922 94.5182L163.764 92.1336C164.56 91.4916 166.449 90.6203 167.7 91.1706C168.951 91.7438 169.543 93.0737 169.042 94.1972C168.428 95.5959 167.541 95.9628 164.697 95.9628C164.082 95.9398 163.309 95.8711 162.649 95.6647C162.376 95.573 162.103 95.4583 161.875 95.3437C159.759 94.2202 158.576 91.7438 158.576 88.5567C158.576 84.1085 161.033 81.0819 164.879 81.0819C165.061 81.0819 165.22 81.0819 165.379 81.1048C165.402 81.1048 165.402 81.1048 165.425 81.1048C165.925 81.1507 166.426 81.2653 166.858 81.4258C166.858 81.4258 167.04 81.4946 167.336 81.6322C167.404 81.678 167.495 81.7239 167.563 81.7468C168.496 82.2513 170.021 83.3748 170.135 85.3237C170.135 85.3696 170.271 85.3696 170.271 85.3237L170.248 84.2461L170.226 84.2002L170.157 81.8156C168.997 81.2882 166.608 80.8755 164.833 80.8755C160.442 80.8755 156.665 84.0626 156.665 88.5567C156.665 92.2024 159.031 95.0456 162.444 95.9169C162.99 96.0774 163.559 96.1691 164.151 96.1921C164.173 96.1921 164.173 96.1921 164.196 96.1921C164.378 96.215 164.537 96.215 164.719 96.215H164.742C168.496 96.2838 170.18 95.5271 170.749 94.2431C171.318 92.982 170.772 91.4687 169.111 90.712Z" fill="#333333"/>
<path d="M177.104 87.8459C174.897 86.9058 172.713 86.0116 172.713 83.948C172.713 82.2971 173.76 81.0819 176.353 81.0819C176.353 81.0819 176.399 81.0819 176.467 81.0819C176.49 81.0819 176.535 81.0819 176.581 81.0819C176.877 81.1048 177.491 81.1736 178.151 81.4029C178.515 81.5405 179.152 81.8156 179.744 82.2971C179.789 82.343 179.857 82.3659 179.903 82.4118C180.153 82.641 180.381 82.9162 180.608 83.2372C180.904 83.7187 181.109 84.2919 181.132 85.0027C181.154 85.0486 181.291 85.0486 181.291 85.0027L181.245 83.9251V83.8792L181.154 81.4717C181.109 81.4487 181.063 81.4487 181.018 81.4258C179.789 81.1507 178.492 80.8526 176.353 80.8526C173.646 80.8526 171.37 82.3888 171.37 84.9569C171.37 87.2268 173.691 88.2586 175.967 89.1987C178.151 90.1159 180.29 90.9872 180.29 93.0967C180.29 94.7934 179.266 95.9857 176.922 95.9857C176.308 95.9857 175.762 95.9398 175.261 95.8023C175.17 95.7793 175.079 95.7564 174.988 95.7106C174.442 95.5042 171.894 94.3577 171.803 91.2165C171.803 91.1706 171.666 91.1706 171.666 91.2165L171.712 92.3171V92.4776C171.712 93.6469 171.712 94.8393 171.712 95.3437C171.712 95.4813 171.735 95.5271 171.939 95.573C173.441 95.9628 174.601 96.215 176.922 96.215C179.471 96.215 181.564 94.5412 181.564 92.0878C181.564 89.749 179.334 88.786 177.104 87.8459Z" fill="#333333"/>
</svg>
